<?xml version="1.0" encoding="UTF-8" standalone="no"?>
<!DOCTYPE svg PUBLIC "-//W3C//DTD SVG 1.1//EN" "http://www.w3.org/Graphics/SVG/1.1/DTD/svg11.dtd">
<!-- Created with Vectornator (http://vectornator.io/) -->
<svg height="30.0mm" stroke-miterlimit="10" style="fill-rule:nonzero;clip-rule:evenodd;stroke-linecap:round;stroke-linejoin:round;" version="1.1" viewBox="0 0 56.7 85.05" width="20.0mm" xml:space="preserve" xmlns="http://www.w3.org/2000/svg" xmlns:xlink="http://www.w3.org/1999/xlink">
<defs/>
<g id="Layer-1">
<path d="M27.2272 2.72019C27.3208 2.95192 27.4144 3.18366 27.5079 3.41539C27.274 3.32269 27.0401 3.23 26.8062 3.13731C26.5723 3.04462 26.3384 2.95192 26.1045 2.85923C26.1045 3.27635 26.1045 3.69346 26.1045 4.11058C26.1045 4.5277 26.1045 4.94481 26.1045 5.36193C26.3384 5.31558 26.5723 5.26924 26.8062 5.22289C27.0401 5.17654 27.274 5.1302 27.5079 5.08385C27.4611 5.36193 27.4144 5.64001 27.3676 5.91808C27.274 6.47424 27.0869 6.84501 26.8062 7.03039C26.5255 7.21578 26.3851 7.58655 26.3851 8.1427C26.3851 8.69886 26.5255 9.16232 26.8062 9.53309C26.9465 9.71848 27.0869 9.90386 27.2272 10.0892C26.9933 10.1819 26.7594 10.2746 26.5255 10.3673C26.0577 10.5527 25.122 10.4137 23.7186 9.95021C22.3151 9.48675 20.9116 9.30136 19.5082 9.39405C18.1047 9.48675 16.9819 9.99655 16.1399 10.9235C15.2978 11.8504 14.9235 13.0091 15.0171 14.3994C15.1106 15.7898 15.3913 16.485 15.8592 16.485C16.0931 16.485 16.327 16.485 16.5609 16.485C16.5141 15.8825 16.4673 15.28 16.4205 14.6775C16.327 13.4725 16.4205 12.6383 16.7012 12.1748C16.9819 11.7114 17.403 11.3406 17.9644 11.0625C18.5257 10.7844 20.1631 10.8771 22.8765 11.3406C25.5899 11.8041 26.9465 12.4529 26.9465 13.2871C26.9465 13.7043 26.9465 14.1214 26.9465 14.5385C27.3676 14.5385 27.7886 14.5385 28.2097 14.5385C29.0517 14.5385 29.5196 14.1214 29.6131 13.2871C29.7067 12.4529 31.1101 11.8041 33.8235 11.3406C36.5369 10.8771 38.2678 10.9235 39.0163 11.4796C39.7649 12.0358 40.1859 12.7773 40.2795 13.7043C40.373 14.6312 40.3262 15.3264 40.1391 15.7898C40.0455 16.0216 39.952 16.2533 39.8584 16.485C40.0923 16.5314 40.3262 16.5777 40.5601 16.6241C40.7941 16.6704 41.028 16.7168 41.2619 16.7631C41.3554 16.0216 41.449 15.28 41.5426 14.5385C41.7297 13.0554 41.5426 11.9431 40.9812 11.2016C40.4198 10.46 39.8116 9.95021 39.1567 9.67213C38.5017 9.39405 37.6597 9.25501 36.6304 9.25501C35.6012 9.25501 34.6188 9.4404 33.6832 9.81117C32.7475 10.1819 31.8119 10.3673 30.8762 10.3673C30.4084 10.3673 29.9406 10.3673 29.4728 10.3673C29.6131 9.99655 29.7535 9.62578 29.8938 9.25501C30.1745 8.51347 30.2213 7.91097 30.0342 7.44751C29.847 6.98405 29.6599 6.75232 29.4728 6.75232C29.2856 6.75232 29.1453 6.47424 29.0517 5.91808C29.005 5.64001 28.9582 5.36193 28.9114 5.08385C29.1921 5.1302 29.4728 5.17654 29.7535 5.22289C30.0342 5.26924 30.3149 5.31558 30.5955 5.36193C30.5955 4.99116 30.5955 4.62039 30.5955 4.24962C30.5955 3.87885 30.5955 3.50808 30.5955 3.13731C30.3616 3.18366 30.1277 3.23 29.8938 3.27635C29.6599 3.32269 29.426 3.36904 29.1921 3.41539C29.2389 3.18366 29.2856 2.95192 29.3324 2.72019C29.3792 2.48846 29.426 2.25673 29.4728 2.025C29.0517 2.025 28.6307 2.025 28.2097 2.025C27.7886 2.025 27.3676 2.025 26.9465 2.025C27.0401 2.25673 27.1337 2.48846 27.2272 2.72019ZM27.0869 15.5118C26.9465 15.5581 26.8062 15.6045 26.6658 15.6508C26.8062 15.9752 26.9465 16.2996 27.0869 16.6241C27.2272 16.9485 27.3676 17.2729 27.5079 17.5973C27.1804 17.4583 26.853 17.3193 26.5255 17.1802C26.198 17.0412 25.8705 16.9021 25.5431 16.7631C25.5431 17.2729 25.5431 17.7827 25.5431 18.2925C25.5431 18.8023 25.5431 19.3122 25.5431 19.822C25.8705 19.7293 26.198 19.6366 26.5255 19.5439C26.853 19.4512 27.1804 19.3585 27.5079 19.2658C27.5079 19.4048 27.5079 19.5439 27.5079 19.6829C27.5079 19.961 27.274 20.3318 26.8062 20.7952C26.3384 21.2587 25.6834 21.3977 24.8413 21.2123C23.9993 21.027 23.5782 20.7025 23.5782 20.2391C23.5782 20.0073 23.5782 19.7756 23.5782 19.5439C23.7653 19.5902 23.9525 19.6366 24.1396 19.6829C24.3267 19.7293 24.5139 19.7756 24.701 19.822C24.7478 19.5439 24.7946 19.2658 24.8413 18.9877C24.8881 18.7096 24.9349 18.4316 24.9817 18.1535C24.701 18.1071 24.4203 18.0608 24.1396 18.0145C23.5782 17.9218 23.204 17.5973 23.0168 17.0412C22.8297 16.485 22.549 16.1143 22.1748 15.9289C21.9876 15.8362 21.8005 15.7435 21.6134 15.6508C21.5198 16.1143 21.4262 16.5777 21.3327 17.0412C21.1455 17.9681 20.8181 18.5243 20.3502 18.7096C19.8824 18.895 19.6953 19.2658 19.7889 19.822C19.8356 20.1 19.8824 20.3781 19.9292 20.6562C20.1631 20.5635 20.397 20.4708 20.6309 20.3781C20.8649 20.2854 21.0988 20.1927 21.3327 20.1C21.3327 20.3318 21.3327 20.5635 21.3327 20.7952C21.3327 21.027 21.3327 21.2587 21.3327 21.4904C21.2391 21.4904 21.1455 21.4904 21.052 21.4904C20.8649 21.4904 20.7245 21.6758 20.6309 22.0466C20.5374 22.4173 20.3035 22.6027 19.9292 22.6027C19.555 22.6027 19.0871 22.371 18.5257 21.9075C18.245 21.6758 17.9644 21.4441 17.6837 21.2123C18.0111 21.2123 18.3386 21.2123 18.6661 21.2123C18.9936 21.2123 19.321 21.2123 19.6485 21.2123C19.555 20.7489 19.4614 20.2854 19.3678 19.822C19.2743 19.3585 19.1807 18.895 19.0871 18.4316C18.8064 18.5706 18.5257 18.7096 18.245 18.8487C17.9644 18.9877 17.6837 19.1268 17.403 19.2658C17.4965 18.895 17.5901 18.5243 17.6837 18.1535C17.7772 17.7827 17.8708 17.412 17.9644 17.0412C17.6369 17.1339 17.3094 17.2266 16.9819 17.3193C16.327 17.5046 16.0463 17.8754 16.1399 18.4316C16.2334 18.9877 16.1399 19.3585 15.8592 19.5439C15.5785 19.7293 15.4381 20.0073 15.4381 20.3781C15.4381 20.7489 15.7188 21.1197 16.2802 21.4904C16.8416 21.8612 17.2626 22.8345 17.5433 24.4102C17.6837 25.1981 17.824 25.986 17.9644 26.7739C19.3678 26.4495 20.7713 26.125 22.1748 25.8006C24.9817 25.1518 27.4144 24.8737 29.4728 24.9664C31.5312 25.0591 33.5896 25.3835 35.648 25.9397C36.6772 26.2177 37.7064 26.4958 38.7356 26.7739C38.876 25.9397 39.0163 25.1054 39.1567 24.2712C39.4374 22.6027 39.8584 21.5831 40.4198 21.2123C40.9812 20.8416 41.2619 20.5172 41.2619 20.2391C41.2619 19.961 41.1215 19.7293 40.8408 19.5439C40.5601 19.3585 40.4666 18.9877 40.5601 18.4316C40.6537 17.8754 40.373 17.5046 39.7181 17.3193C39.3906 17.2266 39.0631 17.1339 38.7356 17.0412C38.8292 17.412 38.9228 17.7827 39.0163 18.1535C39.1099 18.5243 39.2035 18.895 39.297 19.2658C39.0163 19.1268 38.7356 18.9877 38.455 18.8487C38.1743 18.7096 37.8936 18.5706 37.6129 18.4316C37.5193 18.6633 37.4257 18.895 37.3322 19.1268C37.2386 19.3585 37.145 19.5902 37.0515 19.822C37.0047 19.6366 36.9579 19.4512 36.9111 19.2658C36.8176 18.895 36.5369 18.6633 36.0691 18.5706C35.6012 18.4779 35.3673 18.0608 35.3673 17.3193C35.3673 16.5777 35.227 16.1143 34.9463 15.9289C34.8059 15.8362 34.6656 15.7435 34.5252 15.6508C34.3381 16.0216 34.151 16.3923 33.9639 16.7631C33.5896 17.5046 33.2153 17.8291 32.8411 17.7364C32.4668 17.6437 32.1861 17.69 31.999 17.8754C31.8119 18.0608 31.7183 18.3852 31.7183 18.8487C31.7183 19.0804 31.7183 19.3122 31.7183 19.5439C31.9522 19.5439 32.1861 19.5439 32.42 19.5439C32.654 19.5439 32.8879 19.5439 33.1218 19.5439C33.075 19.7756 33.0282 20.0073 32.9814 20.2391C32.8879 20.7025 32.4668 21.027 31.7183 21.2123C30.9698 21.3977 30.3616 21.305 29.8938 20.9343C29.426 20.5635 29.1453 20.1927 29.0517 19.822C29.005 19.6366 28.9582 19.4512 28.9114 19.2658C29.2856 19.3585 29.6599 19.4512 30.0342 19.5439C30.4084 19.6366 30.7827 19.7293 31.1569 19.822C31.1569 19.3122 31.1569 18.8023 31.1569 18.2925C31.1569 17.7827 31.1569 17.2729 31.1569 16.7631C30.8295 16.9021 30.502 17.0412 30.1745 17.1802C29.847 17.3193 29.5196 17.4583 29.1921 17.5973C29.2856 17.2729 29.3792 16.9485 29.4728 16.6241C29.5663 16.2996 29.6599 15.9752 29.7535 15.6508C29.3792 15.6045 29.005 15.5581 28.6307 15.5118C27.8822 15.4191 27.3676 15.4191 27.0869 15.5118ZM35.3673 20.1C35.5545 20.1927 35.7416 20.2854 35.9287 20.3781C36.303 20.5635 36.6304 20.5635 36.9111 20.3781C37.0515 20.2854 37.1918 20.1927 37.3322 20.1C37.2854 20.2854 37.2386 20.4708 37.1918 20.6562C37.145 20.8416 37.0983 21.027 37.0515 21.2123C37.3322 21.166 37.6129 21.1197 37.8936 21.0733C38.1743 21.027 38.455 20.9806 38.7356 20.9343C38.7356 21.027 38.7356 21.1197 38.7356 21.2123C38.7356 21.3977 38.2678 21.6758 37.3322 22.0466C36.8644 22.232 36.3965 22.4173 35.9287 22.6027C35.9287 22.4173 35.9287 22.232 35.9287 22.0466C35.9287 21.8612 35.9287 21.6758 35.9287 21.4904C35.7884 21.4904 35.648 21.4904 35.5077 21.4904C35.3673 21.4904 35.227 21.4904 35.0866 21.4904C35.1334 21.2587 35.1802 21.027 35.227 20.7952C35.2738 20.5635 35.3205 20.3318 35.3673 20.1ZM22.3151 26.6349C19.4146 27.2837 17.824 27.8399 17.5433 28.3033C17.2626 28.7668 17.3094 29.1839 17.6837 29.5547C18.0579 29.9254 19.321 29.7864 21.473 29.1376C23.625 28.4887 25.8705 28.1643 28.2097 28.1643C30.5488 28.1643 32.654 28.4424 34.5252 28.9985C36.3965 29.5547 37.6597 29.7864 38.3146 29.6937C38.6421 29.6474 38.9696 29.601 39.297 29.5547C39.2502 29.2766 39.2035 28.9985 39.1567 28.7204C39.0631 28.1643 38.4082 27.6545 37.1918 27.191C35.9755 26.7276 33.9171 26.3568 31.0166 26.0787C28.1161 25.8006 25.2156 25.986 22.3151 26.6349ZM13.754 28.9985C13.1926 29.7401 12.9119 30.5743 12.9119 31.5012C12.9119 31.9647 12.9119 32.4281 12.9119 32.8916C13.1458 32.8453 13.3797 32.7989 13.6136 32.7526C14.0814 32.6599 14.5025 32.3818 14.8767 31.9183C15.251 31.4549 15.4849 30.7597 15.5785 29.8327C15.672 28.9058 15.5317 28.3497 15.1574 28.1643C14.7832 27.9789 14.3153 28.257 13.754 28.9985ZM41.2619 29.5547C41.2619 30.667 41.449 31.4549 41.8233 31.9183C42.1975 32.3818 42.5718 32.6599 42.946 32.7526C43.1332 32.7989 43.3203 32.8453 43.5074 32.8916C43.5074 32.3354 43.5074 31.7793 43.5074 31.2231C43.5074 30.1108 43.2735 29.2766 42.8057 28.7204C42.3379 28.1643 41.9636 27.8862 41.6829 27.8862C41.5426 27.8862 41.4022 27.8862 41.2619 27.8862C41.2619 28.4424 41.2619 28.9985 41.2619 29.5547ZM22.5958 29.5547C21.0052 29.9254 19.5082 30.4353 18.1047 31.0841C16.7012 31.7329 14.8767 33.0306 12.6312 34.9772C10.3856 36.9237 8.70149 38.8703 7.57871 40.8168C6.45594 42.7634 5.70743 44.2928 5.33317 45.4051C4.95891 46.5174 4.67822 47.6761 4.49109 48.8811C4.30396 50.0861 4.25718 51.7545 4.35074 53.8865C4.44431 56.0184 4.67822 57.7795 5.05248 59.1699C5.42673 60.5603 5.98812 61.997 6.73663 63.4801C7.48515 64.9632 8.28045 66.2609 9.12252 67.3732C9.9646 68.4855 11.0874 69.6442 12.4908 70.8492C13.8943 72.0542 15.9995 73.2592 18.8064 74.4642C21.6134 75.6692 24.5139 76.318 27.5079 76.4107C30.502 76.5034 32.7475 76.3644 34.2446 75.9936C35.7416 75.6228 37.4257 74.974 39.297 74.0471C41.1683 73.1201 43.0864 71.6834 45.0512 69.7369C47.0161 67.7903 48.3728 66.1682 49.1213 64.8705C49.8698 63.5728 50.5248 62.0897 51.0861 60.4213C51.6475 58.7528 51.9282 56.2038 51.9282 52.7741C51.9282 49.3445 51.3668 46.2857 50.2441 43.5976C49.1213 40.9095 47.3903 38.4068 45.0512 36.0895C42.7121 33.7722 40.1859 32.0574 37.4725 30.9451C34.7592 29.8327 31.999 29.2302 29.1921 29.1376C26.3851 29.0449 24.1864 29.1839 22.5958 29.5547ZM10.3856 31.2231C9.82426 31.9647 9.63713 32.8916 9.82426 34.0039C9.91782 34.5601 10.0114 35.1162 10.105 35.6724C10.4324 35.348 10.7599 35.0235 11.0874 34.6991C11.7423 34.0503 12.0698 33.3087 12.0698 32.4745C12.0698 31.6403 11.9295 31.0378 11.6488 30.667C11.5084 30.4816 11.3681 30.2962 11.2277 30.1108C10.947 30.4816 10.6663 30.8524 10.3856 31.2231ZM28.2097 30.1108C30.1745 30.1108 31.8119 30.2499 33.1218 30.5279C34.4317 30.806 36.2094 31.5012 38.455 32.6135C40.7005 33.7258 42.8525 35.3943 44.9109 37.6189C46.9693 39.8435 48.326 41.651 48.9809 43.0414C49.6359 44.4318 50.1505 45.9149 50.5248 47.4907C50.899 49.0664 51.0861 50.8276 51.0861 52.7741C51.0861 54.7207 50.9458 56.3428 50.6651 57.6405C50.3844 58.9382 49.5423 60.8847 48.1389 63.4801C46.7354 66.0755 44.9109 68.3001 42.6653 70.154C40.4198 72.0078 38.0339 73.3519 35.5077 74.1861C32.9814 75.0203 30.1277 75.3448 26.9465 75.1594C23.7653 74.974 20.8649 74.2325 18.245 72.9348C15.6252 71.6371 13.8475 70.5711 12.9119 69.7369C11.9762 68.9026 10.9938 67.7903 9.9646 66.3999C8.9354 65.0096 7.95297 63.0167 7.01733 60.4213C6.08168 57.8259 5.56708 55.694 5.47351 54.0255C5.37995 52.357 5.47351 50.6886 5.75421 49.0201C6.0349 47.3516 6.73663 45.3587 7.85941 43.0414C8.98218 40.7241 10.0114 39.0093 10.947 37.897C11.8827 36.7847 12.9587 35.7651 14.175 34.8381C15.3913 33.9112 16.6545 33.1233 17.9644 32.4745C19.2743 31.8256 20.8181 31.2695 22.5958 30.806C24.3735 30.3426 26.2448 30.1108 28.2097 30.1108ZM44.6302 31.6403C44.4431 32.4745 44.4899 33.216 44.7705 33.8649C45.0512 34.5137 45.4255 34.9772 45.8933 35.2553C46.1272 35.3943 46.3611 35.5333 46.595 35.6724C46.6886 35.1162 46.7822 34.5601 46.8757 34.0039C47.0629 32.8916 46.7822 32.011 46.0337 31.3622C45.6594 31.0378 45.2851 30.7133 44.9109 30.3889C44.8173 30.806 44.7238 31.2231 44.6302 31.6403ZM27.2272 30.9451C26.6658 31.1304 26.1512 31.5476 25.6834 32.1964C25.2156 32.8453 24.9817 33.5404 24.9817 34.282C24.9817 35.0235 25.3559 35.8114 26.1045 36.6456C26.4787 37.0628 26.853 37.4799 27.2272 37.897C25.5899 37.897 23.9525 37.897 22.3151 37.897C19.0403 37.897 17.3562 38.1751 17.2626 38.7312C17.1691 39.2874 18.2918 39.7972 20.6309 40.2607C22.97 40.7241 24.6542 40.9558 25.6834 40.9558C26.198 40.9558 26.7126 40.9558 27.2272 40.9558C27.2272 41.6047 27.2272 42.2535 27.2272 42.9024C27.2272 44.2001 27.4611 44.9416 27.929 45.127C28.3968 45.3124 28.771 45.3124 29.0517 45.127C29.3324 44.9416 29.4728 44.2001 29.4728 42.9024C29.4728 41.6047 31.1101 40.7705 34.3849 40.3997C37.6597 40.0289 39.3438 39.5655 39.4374 39.0093C39.4842 38.7312 39.5309 38.4532 39.5777 38.1751C37.8936 38.1287 36.2094 38.0824 34.5252 38.036C32.8411 37.9897 31.1569 37.9433 29.4728 37.897C29.847 37.4799 30.2213 37.0628 30.5955 36.6456C31.3441 35.8114 31.7183 35.0235 31.7183 34.282C31.7183 33.5404 31.5312 32.8916 31.1569 32.3354C30.7827 31.7793 30.1745 31.3622 29.3324 31.0841C28.4903 30.806 27.7886 30.7597 27.2272 30.9451ZM28.35 32.3354C28.9114 32.3354 29.3792 32.5208 29.7535 32.8916C30.1277 33.2624 30.2213 33.8185 30.0342 34.5601C29.9406 34.9308 29.847 35.3016 29.7535 35.6724C29.3792 35.5797 29.005 35.487 28.6307 35.3943C27.8822 35.2089 27.3676 35.2089 27.0869 35.3943C26.9465 35.487 26.8062 35.5797 26.6658 35.6724C26.6191 35.3016 26.5723 34.9308 26.5255 34.5601C26.4319 33.8185 26.5723 33.2624 26.9465 32.8916C27.3208 32.5208 27.7886 32.3354 28.35 32.3354ZM7.29802 34.0039C6.92376 34.5601 6.73663 35.3016 6.73663 36.2285C6.73663 37.1555 6.87698 37.8043 7.15767 38.1751C7.29802 38.3605 7.43837 38.5458 7.57871 38.7312C7.85941 38.3605 8.1401 37.9897 8.42079 37.6189C8.98218 36.8774 9.21609 36.1358 9.12252 35.3943C9.02896 34.6528 8.79505 34.0966 8.42079 33.7258C8.23366 33.5404 8.04653 33.3551 7.85941 33.1697C7.67228 33.4478 7.48515 33.7258 7.29802 34.0039ZM48.1389 33.7258C47.8582 34.0966 47.671 34.6528 47.5775 35.3943C47.4839 36.1358 47.6243 36.8774 47.9985 37.6189C48.3728 38.3605 48.6535 38.7312 48.8406 38.7312C49.0277 38.7312 49.2616 38.4995 49.5423 38.036C49.823 37.5726 49.9634 36.9237 49.9634 36.0895C49.9634 35.2553 49.7295 34.5601 49.2616 34.0039C49.0277 33.7258 48.7938 33.4478 48.5599 33.1697C48.4196 33.3551 48.2792 33.5404 48.1389 33.7258ZM4.49109 38.5922C4.30396 39.7972 4.49109 40.7241 5.05248 41.373C5.33317 41.6974 5.61386 42.0218 5.89455 42.3462C6.0349 42.0682 6.17525 41.7901 6.31559 41.512C6.59629 40.9558 6.73663 40.3533 6.73663 39.7045C6.73663 39.0557 6.5495 38.4068 6.17525 37.758C5.80099 37.1091 5.47351 36.7847 5.19282 36.7847C4.91213 36.7847 4.67822 37.3872 4.49109 38.5922ZM50.5248 37.758C50.1505 38.4068 49.9634 39.0557 49.9634 39.7045C49.9634 40.3533 50.1037 40.9558 50.3844 41.512C50.5248 41.7901 50.6651 42.0682 50.8054 42.3462C51.0861 41.9755 51.3668 41.6047 51.6475 41.2339C52.2089 40.4924 52.4428 39.6582 52.3493 38.7312C52.2557 37.8043 52.0218 37.2481 51.6475 37.0628C51.2733 36.8774 50.899 37.1091 50.5248 37.758ZM12.9119 40.5387C13.8475 41.5583 15.4381 42.6707 17.6837 43.8757C19.9292 45.0807 21.8473 45.8686 23.4379 46.2393C25.0285 46.6101 26.1512 47.0736 26.8062 47.6297C27.4611 48.1859 28.2564 48.3712 29.1921 48.1859C29.6599 48.0932 30.1277 48.0005 30.5955 47.9078C30.502 47.7687 30.4084 47.6297 30.3149 47.4907C30.1277 47.2126 27.6483 45.8686 22.8765 43.4585C18.1047 41.0485 15.0171 39.7045 13.6136 39.4264C12.9119 39.2874 12.2101 39.1483 11.5084 39.0093C11.9762 39.5191 12.4441 40.0289 12.9119 40.5387ZM36.4901 42.4853C34.151 43.6439 31.8119 44.8026 29.4728 45.9612C29.9406 46.1466 30.4084 46.332 30.8762 46.5174C31.8119 46.8882 32.8879 46.8418 34.1042 46.3784C35.3205 45.9149 37.1918 44.9416 39.7181 43.4585C42.2443 41.9755 43.7881 40.9095 44.3495 40.2607C44.6302 39.9362 44.9109 39.6118 45.1916 39.2874C44.9109 39.241 44.6302 39.1947 44.3495 39.1483C43.7881 39.0557 41.1683 40.168 36.4901 42.4853ZM2.38589 42.2072C2.29233 43.2268 2.6198 44.1074 3.36832 44.8489C3.74257 45.2197 4.11683 45.5905 4.49109 45.9612C4.53787 45.4051 4.58465 44.8489 4.63144 44.2928C4.725 43.1805 4.53787 42.2999 4.07005 41.651C3.60223 41.0022 3.22797 40.6778 2.94728 40.6778C2.66658 40.6778 2.47946 41.1876 2.38589 42.2072ZM52.63 41.512C52.1621 42.0682 51.975 42.9487 52.0686 44.1537C52.1153 44.7562 52.1621 45.3587 52.2089 45.9612C52.4896 45.7759 52.7703 45.5905 53.051 45.4051C53.6124 45.0343 53.9866 44.6172 54.1738 44.1537C54.3609 43.6903 54.4077 42.9951 54.3141 42.0682C54.2205 41.1412 54.0334 40.6778 53.7527 40.6778C53.472 40.6778 53.0978 40.9558 52.63 41.512ZM0.982426 46.1003C0.888861 46.9345 1.12277 47.7224 1.68416 48.4639C2.24554 49.2055 2.71337 49.6226 3.08762 49.7153C3.27475 49.7616 3.46188 49.808 3.64901 49.8543C3.64901 49.3445 3.64901 48.8347 3.64901 48.3249C3.64901 47.3053 3.4151 46.5174 2.94728 45.9612C2.47946 45.4051 2.05842 45.0807 1.68416 44.988C1.49703 44.9416 1.3099 44.8953 1.12277 44.8489C1.07599 45.266 1.02921 45.6832 0.982426 46.1003ZM53.8931 45.8222C53.3317 46.4711 53.051 47.3053 53.051 48.3249C53.051 48.8347 53.051 49.3445 53.051 49.8543C53.2381 49.808 53.4252 49.7616 53.6124 49.7153C53.9866 49.6226 54.4077 49.2982 54.8755 48.742C55.3433 48.1859 55.624 47.4907 55.7176 46.6564C55.8111 45.8222 55.6708 45.3124 55.2965 45.127C54.9223 44.9416 54.4545 45.1734 53.8931 45.8222ZM10.105 46.2393C8.98218 46.4247 8.09332 46.7028 7.43837 47.0736C7.11089 47.2589 6.78342 47.4443 6.45594 47.6297C7.71906 47.9078 8.98218 48.1859 10.2453 48.4639C12.7715 49.0201 14.9703 49.808 16.8416 50.8276C18.7129 51.8472 20.4906 52.4034 22.1748 52.4961C23.8589 52.5888 24.7478 52.9132 24.8413 53.4693C24.9349 54.0255 24.6074 54.8134 23.8589 55.833C23.4847 56.3428 23.1104 56.8526 22.7361 57.3624C23.204 57.6405 23.6718 57.9186 24.1396 58.1967C25.0752 58.7528 26.1512 59.0772 27.3676 59.1699C28.5839 59.2626 29.847 59.1236 31.1569 58.7528C32.4668 58.382 33.2153 57.9649 33.4025 57.5015C33.5896 57.038 33.2621 56.4818 32.42 55.833C31.578 55.1841 31.2037 54.628 31.2973 54.1645C31.3908 53.7011 31.2973 53.3766 31.0166 53.1913C30.8762 53.0986 30.7359 53.0059 30.5955 52.9132C31.4844 52.9595 32.3733 53.0059 33.2621 53.0522C34.151 53.0986 35.0399 53.1449 35.9287 53.1913C35.7884 52.9132 35.648 52.6351 35.5077 52.357C35.227 51.8009 34.6188 51.4301 33.6832 51.2447C32.7475 51.0593 31.7183 50.6886 30.5955 50.1324C29.4728 49.5763 28.7243 49.3445 28.35 49.4372C27.9757 49.5299 27.5079 49.2982 26.9465 48.742C26.3851 48.1859 25.4963 47.6761 24.28 47.2126C23.0636 46.7491 20.6777 46.4247 17.1223 46.2393C13.5668 46.0539 11.2277 46.0539 10.105 46.2393ZM34.1042 47.3516C32.9347 47.8151 31.7651 48.2786 30.5955 48.742C30.7827 48.9274 30.9698 49.1128 31.1569 49.2982C31.5312 49.6689 32.3733 50.0397 33.6832 50.4105C34.9931 50.7813 35.6948 51.1057 35.7884 51.3838C35.8819 51.6618 36.1626 51.8009 36.6304 51.8009C37.0983 51.8009 37.8 51.4301 38.7356 50.6886C39.6713 49.947 40.6537 49.3909 41.6829 49.0201C42.7121 48.6493 44.3495 48.2786 46.595 47.9078C47.7178 47.7224 48.8406 47.537 49.9634 47.3516C49.9166 47.2589 49.8698 47.1662 49.823 47.0736C49.7295 46.8882 48.7938 46.6564 47.0161 46.3784C45.2384 46.1003 43.2267 45.9612 40.9812 45.9612C38.7356 45.9612 36.4433 46.4247 34.1042 47.3516ZM0.561386 50.9666C0.748515 52.0789 1.26312 52.8205 2.1052 53.1913C2.52624 53.3766 2.94728 53.562 3.36832 53.7474C3.36832 53.3766 3.36832 53.0059 3.36832 52.6351C3.36832 51.8936 3.22797 51.2911 2.94728 50.8276C2.66658 50.3641 2.15198 49.9934 1.40347 49.7153C1.02921 49.5763 0.65495 49.4372 0.280693 49.2982C0.374257 49.8543 0.467822 50.4105 0.561386 50.9666ZM54.4545 50.2714C53.7059 50.9203 53.3317 51.6618 53.3317 52.4961C53.3317 52.9132 53.3317 53.3303 53.3317 53.7474C53.6592 53.6547 53.9866 53.562 54.3141 53.4693C54.9691 53.284 55.4369 53.0059 55.7176 52.6351C55.9983 52.2643 56.2322 51.6618 56.4193 50.8276C56.6064 49.9934 56.5129 49.5299 56.1386 49.4372C55.7644 49.3445 55.203 49.6226 54.4545 50.2714ZM13.4733 51.3838C13.2861 51.8472 13.3329 52.4034 13.6136 53.0522C13.8943 53.7011 12.9587 54.5353 10.8067 55.5549C8.6547 56.5745 7.43837 57.2234 7.15767 57.5015C6.87698 57.7795 6.78342 58.243 6.87698 58.8918C6.97054 59.5407 7.3448 59.9115 7.99975 60.0042C8.6547 60.0968 10.0582 59.5407 12.2101 58.3357C14.3621 57.1307 15.672 56.8526 16.1399 57.5015C16.6077 58.1503 17.1223 58.4284 17.6837 58.3357C18.245 58.243 18.5257 57.9186 18.5257 57.3624C18.5257 56.8063 18.2918 56.4818 17.824 56.3891C17.3562 56.2965 17.1223 56.1574 17.1223 55.972C17.1223 55.7866 17.7772 55.3232 19.0871 54.5816C19.7421 54.2109 20.397 53.8401 21.052 53.4693C20.4906 53.2376 19.9292 53.0059 19.3678 52.7741C18.245 52.3107 17.3094 52.218 16.5609 52.4961C16.1866 52.6351 15.8124 52.7741 15.4381 52.9132C15.4849 52.6351 15.5317 52.357 15.5785 52.0789C15.672 51.5228 15.3913 51.152 14.7364 50.9666C14.0814 50.7813 13.6604 50.9203 13.4733 51.3838ZM41.2619 51.1057C41.0748 51.3838 41.028 51.7545 41.1215 52.218C41.1683 52.4497 41.2151 52.6814 41.2619 52.9132C40.7941 52.7278 40.3262 52.5424 39.8584 52.357C38.9228 51.9863 38.1275 52.0789 37.4725 52.6351C36.8176 53.1913 36.5837 53.6547 36.7708 54.0255C36.9579 54.3963 37.4725 54.767 38.3146 55.1378C38.7356 55.3232 39.1567 55.5086 39.5777 55.694C39.3438 55.833 39.1099 55.972 38.876 56.1111C38.4082 56.3891 38.1743 56.8063 38.1743 57.3624C38.1743 57.9186 38.455 58.243 39.0163 58.3357C39.5777 58.4284 39.9988 58.1967 40.2795 57.6405C40.5601 57.0843 40.8876 56.8063 41.2619 56.8063C41.6361 56.8063 42.8057 57.3624 44.7705 58.4747C46.7354 59.587 48.0453 60.0968 48.7002 60.0042C49.3552 59.9115 49.7295 59.5407 49.823 58.8918C49.9166 58.243 48.747 57.2697 46.3144 55.972C43.8817 54.6743 42.8057 53.6084 43.0864 52.7741C43.3671 51.9399 43.4139 51.3838 43.2267 51.1057C43.0396 50.8276 42.7121 50.6886 42.2443 50.6886C41.7765 50.6886 41.449 50.8276 41.2619 51.1057ZM0.280693 54.9988C0.467822 55.833 0.748515 56.4355 1.12277 56.8063C1.49703 57.177 2.05842 57.4551 2.80693 57.6405C3.18119 57.7332 3.55545 57.8259 3.9297 57.9186C3.83614 57.5015 3.74257 57.0843 3.64901 56.6672C3.46188 55.833 3.13441 55.1841 2.66658 54.7207C2.19876 54.2572 1.63738 53.9791 0.982426 53.8865C0.65495 53.8401 0.327475 53.7938 0 53.7474C0.0935644 54.1645 0.187129 54.5816 0.280693 54.9988ZM54.5948 54.3036C53.9399 54.6743 53.472 55.3695 53.1913 56.3891C53.051 56.899 52.9106 57.4088 52.7703 57.9186C53.051 57.8722 53.3317 57.8259 53.6124 57.7795C54.1738 57.6868 54.7351 57.4088 55.2965 56.9453C55.8579 56.4818 56.2322 55.833 56.4193 54.9988C56.5129 54.5816 56.6064 54.1645 56.7 53.7474C56.5129 53.7474 56.3257 53.7474 56.1386 53.7474C55.7644 53.7474 55.2498 53.9328 54.5948 54.3036ZM0.842079 59.1699C1.02921 59.8188 1.3099 60.3286 1.68416 60.6994C2.05842 61.0701 2.71337 61.3019 3.64901 61.3945C4.11683 61.4409 4.58465 61.4872 5.05248 61.5336C4.77178 61.0701 4.49109 60.6067 4.2104 60.1432C3.64901 59.2163 2.9005 58.6601 1.96485 58.4747C1.49703 58.382 1.02921 58.2893 0.561386 58.1967C0.65495 58.5211 0.748515 58.8455 0.842079 59.1699ZM53.472 58.7528C52.8171 59.1236 52.3493 59.587 52.0686 60.1432C51.7879 60.6994 51.6943 61.1165 51.7879 61.3945C51.8814 61.6726 52.2557 61.7653 52.9106 61.6726C53.5656 61.5799 54.1738 61.3019 54.7351 60.8384C55.2965 60.3749 55.6708 59.8188 55.8579 59.1699C55.9515 58.8455 56.045 58.5211 56.1386 58.1967C55.8579 58.1967 55.5772 58.1967 55.2965 58.1967C54.7351 58.1967 54.127 58.382 53.472 58.7528ZM17.2626 60.9774C16.7948 62.0897 16.5609 63.1094 16.5609 64.0363C16.5609 64.4997 16.5609 64.9632 16.5609 65.4267C16.9819 65.334 17.403 65.2413 17.824 65.1486C18.6661 64.9632 19.2743 65.473 19.6485 66.678C20.0228 67.883 21.473 69.5051 23.9993 71.5444C26.5255 73.5836 28.0225 74.5569 28.4903 74.4642C28.9582 74.3715 29.5196 74.0007 30.1745 73.3519C30.8295 72.703 31.6715 72.1005 32.7007 71.5444C33.73 70.9882 34.6188 70.3394 35.3673 69.5978C36.1158 68.8563 36.6772 67.883 37.0515 66.678C37.4257 65.473 38.0339 64.9632 38.876 65.1486C39.297 65.2413 39.7181 65.334 40.1391 65.4267C40.1391 64.9632 40.1391 64.4997 40.1391 64.0363C40.1391 63.1094 39.8584 62.0897 39.297 60.9774C39.0163 60.4213 38.7356 59.8651 38.455 59.309C37.9871 59.587 37.5193 59.8651 37.0515 60.1432C36.1158 60.6994 35.3205 61.3945 34.6656 62.2288C34.0106 63.063 33.73 63.5728 33.8235 63.7582C33.9171 63.9436 34.2913 64.0363 34.9463 64.0363C35.2738 64.0363 35.6012 64.0363 35.9287 64.0363C35.7884 64.4997 35.648 64.9632 35.5077 65.4267C35.227 66.3536 34.572 67.2342 33.5428 68.0684C32.5136 68.9026 31.7183 69.2734 31.1569 69.1807C30.5955 69.088 30.1745 68.9026 29.8938 68.6246C29.6131 68.3465 29.4728 66.9097 29.4728 64.3144C29.4728 61.719 29.0985 60.3749 28.35 60.2822C27.9757 60.2359 27.6015 60.1895 27.2272 60.1432C27.2272 61.4409 27.2272 62.7386 27.2272 64.0363C27.2272 66.6317 27.0869 68.1147 26.8062 68.4855C26.5255 68.8563 26.1045 69.088 25.5431 69.1807C24.9817 69.2734 24.1864 68.9026 23.1572 68.0684C22.128 67.2342 21.473 66.539 21.1923 65.9828C20.9116 65.4267 20.7713 64.9632 20.7713 64.5924C20.7713 64.2217 21.1455 63.9899 21.8941 63.8972C22.2683 63.8509 22.6426 63.8045 23.0168 63.7582C22.97 63.6192 22.9233 63.4801 22.8765 63.3411C22.7829 63.063 22.4554 62.5995 21.8941 61.9507C21.3327 61.3019 20.5374 60.6994 19.5082 60.1432C18.9936 59.8651 18.479 59.587 17.9644 59.309C17.7304 59.8651 17.4965 60.4213 17.2626 60.9774ZM1.8245 62.6459C1.73094 62.8313 1.91807 63.2484 2.38589 63.8972C2.85371 64.5461 3.69579 64.9632 4.91213 65.1486C5.5203 65.2413 6.12847 65.334 6.73663 65.4267C6.50272 65.0096 6.26881 64.5924 6.0349 64.1753C5.56708 63.3411 4.77178 62.8313 3.64901 62.6459C2.52624 62.4605 1.91807 62.4605 1.8245 62.6459ZM51.5072 63.063C50.8522 63.5265 50.4312 64.0363 50.2441 64.5924C50.1505 64.8705 50.0569 65.1486 49.9634 65.4267C50.3844 65.4267 50.8054 65.4267 51.2265 65.4267C52.0686 65.4267 52.7703 65.2413 53.3317 64.8705C53.8931 64.4997 54.3141 64.0363 54.5948 63.4801C54.7351 63.202 54.8755 62.924 55.0158 62.6459C54.5948 62.5995 54.1738 62.5532 53.7527 62.5069C52.9106 62.4142 52.1621 62.5995 51.5072 63.063ZM3.9297 66.678C3.74257 66.9561 3.88292 67.3269 4.35074 67.7903C4.81856 68.2538 5.28639 68.5782 5.75421 68.7636C6.22203 68.949 6.87698 68.9953 7.71906 68.9026C8.1401 68.8563 8.56114 68.8099 8.98218 68.7636C8.79505 68.4392 8.60792 68.1147 8.42079 67.7903C8.04653 67.1415 7.25124 66.7244 6.0349 66.539C4.81856 66.3536 4.11683 66.3999 3.9297 66.678ZM48.8406 67.0951C48.0921 67.6513 47.7178 68.0684 47.7178 68.3465C47.7178 68.6246 48.1389 68.8099 48.9809 68.9026C49.823 68.9953 50.6651 68.7636 51.5072 68.2074C52.3493 67.6513 52.8171 67.2342 52.9106 66.9561C53.0042 66.678 52.9574 66.4926 52.7703 66.3999C52.5832 66.3072 52.0686 66.2609 51.2265 66.2609C50.3844 66.2609 49.5891 66.539 48.8406 67.0951ZM6.87698 70.154C6.64307 70.3394 6.40916 70.5248 6.17525 70.7101C6.50272 70.9419 6.8302 71.1736 7.15767 71.4053C7.81262 71.8688 8.60792 72.1005 9.54356 72.1005C10.4792 72.1005 11.0874 72.0078 11.3681 71.8224C11.6488 71.6371 11.7423 71.4053 11.6488 71.1273C11.5552 70.8492 11.1809 70.5248 10.526 70.154C9.87104 69.7832 9.21609 69.5978 8.56114 69.5978C7.90619 69.5978 7.3448 69.7832 6.87698 70.154ZM46.0337 70.293C45.6594 70.5248 45.2851 70.7565 44.9109 70.9882C45.0512 71.1736 45.1916 71.359 45.3319 71.5444C45.6126 71.9151 46.2208 72.1005 47.1564 72.1005C48.0921 72.1005 48.8874 71.8688 49.5423 71.4053C49.8698 71.1736 50.1973 70.9419 50.5248 70.7101C50.3844 70.5711 50.2441 70.4321 50.1037 70.293C49.823 70.0149 49.2616 69.8296 48.4196 69.7369C47.5775 69.6442 46.7822 69.8296 46.0337 70.293ZM11.0874 72.6567C10.4324 72.8421 9.9646 73.1201 9.68391 73.4909C9.54356 73.6763 9.40322 73.8617 9.26287 74.0471C9.54356 74.1861 9.82426 74.3251 10.105 74.4642C10.6663 74.7423 11.5084 74.835 12.6312 74.7423C13.754 74.6496 14.4089 74.4178 14.596 74.0471C14.6896 73.8617 14.7832 73.6763 14.8767 73.4909C14.4089 73.3055 13.9411 73.1201 13.4733 72.9348C12.5376 72.564 11.7423 72.4713 11.0874 72.6567ZM42.525 73.0738C42.2911 73.2128 42.0572 73.3519 41.8233 73.4909C42.0104 73.7226 42.1975 73.9544 42.3847 74.1861C42.7589 74.6496 43.2267 74.9276 43.7881 75.0203C44.3495 75.113 45.0512 74.974 45.8933 74.6032C46.3144 74.4178 46.7354 74.2325 47.1564 74.0471C47.0629 73.8617 46.9693 73.6763 46.8757 73.4909C46.6886 73.1201 46.0337 72.8884 44.9109 72.7957C43.7881 72.703 42.9928 72.7957 42.525 73.0738ZM13.8943 75.5765C13.5668 75.8082 13.2394 76.04 12.9119 76.2717C13.1926 76.4571 13.4733 76.6425 13.754 76.8278C14.3153 77.1986 15.0171 77.3377 15.8592 77.245C16.7012 77.1523 17.3562 76.9205 17.824 76.5498C18.0579 76.3644 18.2918 76.179 18.5257 75.9936C18.3386 75.8082 18.1515 75.6228 17.9644 75.4375C17.5901 75.0667 16.9819 74.8813 16.1399 74.8813C15.2978 74.8813 14.5493 75.113 13.8943 75.5765ZM38.7356 75.4375C38.5485 75.6228 38.3614 75.8082 38.1743 75.9936C38.4082 76.179 38.6421 76.3644 38.876 76.5498C39.3438 76.9205 39.9988 77.1523 40.8408 77.245C41.6829 77.3377 42.3847 77.245 42.946 76.9669C43.2267 76.8278 43.5074 76.6888 43.7881 76.5498C43.4606 76.2717 43.1332 75.9936 42.8057 75.7155C42.1507 75.1594 41.4022 74.8813 40.5601 74.8813C39.7181 74.8813 39.1099 75.0667 38.7356 75.4375ZM18.1047 77.245C17.4498 77.7084 17.1691 78.1255 17.2626 78.4963C17.3562 78.8671 17.8708 79.0525 18.8064 79.0525C19.7421 79.0525 20.5842 78.728 21.3327 78.0792C21.7069 77.7548 22.0812 77.4303 22.4554 77.1059C22.3619 77.0132 22.2683 76.9205 22.1748 76.8278C21.9876 76.6425 21.4262 76.5498 20.4906 76.5498C19.555 76.5498 18.7597 76.7815 18.1047 77.245ZM34.5252 76.9669C34.3381 77.245 34.6188 77.6621 35.3673 78.2182C36.1158 78.7744 37.0047 79.0061 38.0339 78.9134C39.0631 78.8207 39.5777 78.6353 39.5777 78.3573C39.5777 78.0792 39.2502 77.7084 38.5953 77.245C37.9403 76.7815 37.145 76.5498 36.2094 76.5498C35.2738 76.5498 34.7124 76.6888 34.5252 76.9669ZM22.7361 78.2182C21.9876 78.7744 21.5666 79.2378 21.473 79.6086C21.4262 79.794 21.3795 79.9794 21.3327 80.1648C21.6601 80.2111 21.9876 80.2575 22.3151 80.3038C22.97 80.3965 23.6718 80.2575 24.4203 79.8867C25.1688 79.5159 25.6834 79.0525 25.9641 78.4963C26.1045 78.2182 26.2448 77.9402 26.3851 77.6621C25.9641 77.6157 25.5431 77.5694 25.122 77.523C24.28 77.4303 23.4847 77.6621 22.7361 78.2182ZM30.8762 78.4963C31.2505 79.2378 31.7651 79.7477 32.42 80.0257C33.075 80.3038 33.73 80.3965 34.3849 80.3038C34.7124 80.2575 35.0399 80.2111 35.3673 80.1648C35.0866 79.7477 34.8059 79.3305 34.5252 78.9134C33.9639 78.0792 33.1218 77.6157 31.999 77.523C31.4376 77.4767 30.8762 77.4303 30.3149 77.384C30.502 77.7548 30.6891 78.1255 30.8762 78.4963ZM27.3676 79.6086C27.0869 80.7209 27.0401 81.5088 27.2272 81.9723C27.4144 82.4357 27.695 82.7602 28.0693 82.9455C28.4436 83.1309 28.771 82.9919 29.0517 82.5284C29.3324 82.065 29.4728 81.4161 29.4728 80.5819C29.4728 79.7477 29.3324 79.0988 29.0517 78.6353C28.771 78.1719 28.4903 77.9402 28.2097 77.9402C27.929 77.9402 27.6483 78.4963 27.3676 79.6086Z" fill="#000000" fill-rule="nonzero" opacity="1" stroke="none"/>
</g>
</svg>
